name Walk8.mot
datacolumns 19
datarows 10
range 1.47000000 1.51500000
endheader

                time	   L_ground_force_vx	   L_ground_force_vy	   L_ground_force_vz	   L_ground_force_px	   L_ground_force_py	   L_ground_force_pz	   R_ground_force_vx	   R_ground_force_vy	   R_ground_force_vz	   R_ground_force_px	   R_ground_force_py	   R_ground_force_pz	   L_ground_torque_x	   L_ground_torque_y	   L_ground_torque_z	   R_ground_torque_x	   R_ground_torque_y	   R_ground_torque_z	
          1.47000000	         -0.06071551	          0.58157040	         -0.06647280	          0.00054080	          0.00000000	          0.00031431	         24.17342103	        698.58373790	        -20.92860777	         -0.12383352	          0.00000000	          0.33193489	          0.00000000	         -0.00041693	          0.00000000	          0.00000000	          0.74276623	          0.00000000	
          1.47500000	         -0.08477441	          0.54983301	         -0.05773615	          0.00045124	          0.00000000	          0.00025648	         26.07094015	        706.83403782	        -21.89443670	         -0.12123816	          0.00000000	          0.33202020	          0.00000000	         -0.00040721	          0.00000000	          0.00000000	          0.61495681	          0.00000000	
          1.48000000	         -0.11183631	          0.43253251	         -0.03699190	          0.00025594	          0.00000000	          0.00013467	         28.20683021	        714.82838744	        -22.66108248	         -0.11871151	          0.00000000	          0.33202636	          0.00000000	         -0.00034184	          0.00000000	          0.00000000	          0.50749089	          0.00000000	
          1.48500000	         -0.14024353	          0.19627309	         -0.00008160	         -0.00008018	          0.00000000	         -0.00007188	         30.60931404	        722.58930659	        -23.21706624	         -0.11627686	          0.00000000	          0.33195911	          0.00000000	         -0.00019775	          0.00000000	          0.00000000	          0.42111550	          0.00000000	
          1.49000000	         -0.16724520	         -0.19635105	          0.05748564	         -0.00059442	          0.00000000	         -0.00038511	         33.29924258	        730.12876851	        -23.56100772	         -0.11395633	          0.00000000	          0.33182412	          0.00000000	          0.00005134	          0.00000000	          0.00000000	          0.35475400	          0.00000000	
          1.49500000	         -0.18872503	         -0.78438556	          0.14016523	         -0.00132301	          0.00000000	         -0.00082606	         36.28815399	        737.44649290	        -23.69962742	         -0.11176911	          0.00000000	          0.33162717	          0.00000000	          0.00043343	          0.00000000	          0.00000000	          0.30638547	          0.00000000	
          1.50000000	         -0.19894516	         -1.60461787	          0.25180779	         -0.00229600	          0.00000000	         -0.00141179	         39.57779490	        744.53158122	        -23.64468738	         -0.10972982	          0.00000000	          0.33137405	          0.00000000	          0.00097580	          0.00000000	          0.00000000	          0.27355550	          0.00000000	
          1.50500000	         -0.19034668	         -2.68577706	          0.39484597	         -0.00353009	          0.00000000	         -0.00215105	         43.16134904	        751.36859228	        -23.40818698	         -0.10784813	          0.00000000	          0.33106943	          0.00000000	          0.00170122	          0.00000000	          0.00000000	          0.25430546	          0.00000000	
          1.51000000	         -0.15346330	         -4.04048304	          0.56920122	         -0.00501915	          0.00000000	         -0.00303856	         47.02456795	        757.94205110	        -22.99847499	         -0.10612844	          0.00000000	          0.33071908	          0.00000000	          0.00262262	          0.00000000	          0.00000000	          0.24774060	          0.00000000	
          1.51500000	         -0.07702178	         -5.65467904	          0.77088875	         -0.00672216	          0.00000000	         -0.00404778	         51.14426257	        764.23758804	        -22.42575268	         -0.10457064	          0.00000000	          0.33033100	          0.00000000	          0.00373598	          0.00000000	          0.00000000	          0.25294663	          0.00000000	
